<?xml version="1.0" standalone="no"?><!DOCTYPE svg PUBLIC "-//W3C//DTD SVG 1.1//EN" "http://www.w3.org/Graphics/SVG/1.1/DTD/svg11.dtd"><svg t="1554568145411" class="icon" style="" viewBox="0 0 1024 1024" version="1.1" xmlns="http://www.w3.org/2000/svg" p-id="1994" xmlns:xlink="http://www.w3.org/1999/xlink" width="32" height="32"><defs><style type="text/css"></style></defs><path d="M440.236 635.766c-13.31 0-26.616-5.076-36.77-15.23-95.134-95.136-95.134-249.934 0-345.07l192-192C641.554 37.38 702.826 12 768 12s126.448 25.38 172.536 71.464c95.132 95.136 95.132 249.934 0 345.07L852.77 516.3c-20.308 20.308-53.23 20.308-73.54 0-20.306-20.306-20.306-53.232 0-73.54l87.766-87.766c54.584-54.586 54.584-143.404 0-197.99C840.554 130.562 805.396 116 768 116s-72.552 14.562-98.996 41.006l-192 191.998c-54.586 54.586-54.586 143.406 0 197.992 20.308 20.306 20.306 53.232 0 73.54-10.15 10.152-23.462 15.23-36.768 15.23zM256 1012c-65.176 0-126.45-25.38-172.534-71.464-95.134-95.136-95.134-249.934 0-345.07l87.764-87.764c20.308-20.306 53.234-20.306 73.54 0 20.308 20.306 20.308 53.232 0 73.54l-87.764 87.764c-54.586 54.586-54.586 143.406 0 197.992C183.446 893.438 218.604 908 256 908s72.552-14.562 98.998-41.006l192-191.998c54.584-54.586 54.584-143.406 0-197.992-20.308-20.308-20.306-53.232 0-73.54 20.306-20.306 53.232-20.306 73.54 0.002 95.132 95.134 95.132 249.932 0.002 345.068l-192.002 192C382.448 986.622 321.174 1012 256 1012z m672-180c-8.19 0-16.378-3.124-22.626-9.374l-128-128c-12.498-12.496-12.498-32.758 0-45.254 12.496-12.496 32.758-12.496 45.254 0l128 128c12.498 12.496 12.498 32.758 0 45.254C944.38 828.876 936.19 832 928 832z m64-192H864c-17.674 0-32-14.326-32-32s14.326-32 32-32h128c17.674 0 32 14.326 32 32s-14.326 32-32 32zM736 896c-17.674 0-32-14.326-32-32V736.002c0-17.674 14.326-32 32-32s32 14.326 32 32V864c0 17.674-14.326 32-32 32zM160 448H32c-17.672 0-32-14.328-32-32s14.328-32 32-32h128c17.672 0 32 14.328 32 32s-14.326 32-32 32z m64-64c-8.19 0-16.378-3.124-22.626-9.374l-128-128c-12.498-12.496-12.498-32.758 0-45.254 12.496-12.498 32.758-12.498 45.254 0l128 128c12.498 12.496 12.498 32.758 0 45.254C240.38 380.876 232.19 384 224 384z m64-64c-17.672 0-32-14.328-32-32V160c0-17.672 14.328-32 32-32s32 14.328 32 32v128c0 17.672-14.326 32-32 32z" p-id="1995" fill="#ffffff"></path></svg>